<svg width="464" height="89" viewBox="0 0 464 89" fill="none" xmlns="http://www.w3.org/2000/svg">
<path d="M221.6 2.78279C217.067 5.58279 213.333 12.3828 213.333 17.8495C213.333 19.5828 215.2 24.6495 217.467 29.1828L221.467 37.3161L216 42.2495C208.267 49.1828 205.333 55.5828 205.333 65.1828C205.333 73.8495 208.133 79.5828 215.067 84.6495C218.133 86.9161 220.8 87.4495 229.067 87.4495C242.8 87.3161 246.933 85.1828 247.2 77.5828C247.467 73.4495 248.533 71.0495 251.6 67.7161C257.2 61.8495 258.667 58.5161 258.667 52.2495C258.667 46.9161 258.533 46.7828 254.133 46.7828C249.733 46.7828 249.467 47.0495 248.4 52.3828L247.2 58.1161L241.067 49.0495L234.933 39.8495L242 33.0495C250.267 25.0495 252.133 19.0495 249.067 11.0495C245.2 0.916125 231.467 -3.21721 221.6 2.78279ZM237.867 10.2495C242.8 15.1828 241.467 22.5161 234.267 29.3161C230.133 33.0495 228.533 32.2495 225.067 24.5161C222.4 18.5161 222.667 13.4495 225.6 9.84946C227.6 7.44946 235.333 7.71613 237.867 10.2495ZM239.2 61.7161C244.8 69.9828 244.533 71.9828 237.867 77.3161C234 80.3828 225.6 81.0495 221.2 78.7828C211.867 73.7161 212.933 55.8495 222.933 47.4495L226.933 44.1161L230.533 49.0495C232.533 51.8495 236.4 57.4495 239.2 61.7161Z" fill="#CF056F"/>
<path d="M157.733 13.3162C148.133 17.7162 147.333 20.7829 147.333 50.1162C147.333 78.3829 147.867 80.2495 156.4 85.4495C162.267 89.0495 177.467 89.1829 184 85.7162C192.533 81.0495 194 75.8495 194 50.1162C194 25.1829 192.667 19.8495 185.067 14.3829C179.733 10.5162 165.067 9.84952 157.733 13.3162ZM176.933 25.7162C179.067 28.1162 179.333 31.0495 179.333 50.3829C179.333 71.8495 179.2 72.3829 176.133 74.9162C172 78.2495 168.933 78.1162 164.4 74.2495C160.667 71.0495 160.667 70.9162 160.267 52.5162C159.867 37.9829 160.267 32.9162 161.867 29.0495C164.933 21.4495 171.733 19.9829 176.933 25.7162Z" fill="black"/>
<path d="M430.133 12.1162C425.467 13.5829 421.733 16.9162 418.8 22.1162C417.067 25.4495 416.667 30.3829 416.667 50.1162C416.667 77.3162 417.867 81.3162 426.667 85.7162C432.933 88.9162 447.067 88.9162 453.333 85.7162C462.133 81.3162 463.333 77.3162 463.333 50.1162C463.333 21.8495 462.133 17.5829 452.8 13.3162C447.067 10.6495 436.8 10.2495 430.133 12.1162ZM448 27.4495C451.067 33.7162 450.8 67.5829 447.6 72.5162C442.8 79.8495 432.933 77.8495 431.333 69.0495C430.8 66.5162 430.667 56.1162 430.933 45.8495C431.467 24.1162 432.133 22.3829 440.533 23.0495C445.067 23.3162 446.267 24.1162 448 27.4495Z" fill="black"/>
<path d="M0 13.4495C0 14.6495 12.5333 71.8495 15.3333 83.7162C16 86.5162 16.8 86.7828 25.3333 86.7828C33.8667 86.7828 34.6667 86.5162 35.3333 83.7162C35.7333 82.1162 38.9333 66.7828 42.6667 49.7162C46.2667 32.7828 49.6 17.3162 50.1333 15.4495C50.9333 12.2495 50.8 12.1162 43.4667 12.1162C36.8 12.1162 36 12.3828 35.3333 15.0495C34.5333 18.7828 27.0667 64.6495 26.4 70.1162C25.8667 73.9828 25.8667 73.9828 25.0667 70.7828C24.6667 68.9162 22.2667 56.3828 20 42.7828C17.6 29.1828 15.4667 16.7828 15.0667 15.0495C14.4 12.5162 13.6 12.1162 7.2 12.1162C3.2 12.1162 0 12.7828 0 13.4495Z" fill="black"/>
<path d="M58.6667 49.4495V86.7828H66.0001H73.3334V49.4495V12.1162H66.0001H58.6667V49.4495Z" fill="black"/>
<path d="M86.6667 49.4495V86.7828H93.4667H100.4L99.7334 60.6495L99.0667 34.5162L102 43.7162C104.8 52.1162 113.6 74.7828 117.467 83.0495C118.933 86.3828 119.733 86.7828 126.267 86.7828H133.333V49.4495V12.1162H126.533H119.6L120.267 39.0495L120.933 66.1162L118.667 58.5162C117.333 54.3828 112.8 42.2495 108.533 31.5828L100.8 12.1162H93.7334H86.6667V49.4495Z" fill="black"/>
<path d="M269.6 14.3828C270 15.7161 273.733 32.5161 278 51.8495L285.733 86.9161L295.2 86.5161L304.667 86.1161L311.6 54.1161C315.333 36.5161 318.933 19.8495 319.333 17.0495L320.267 12.1161H312.933H305.6L304 21.7161C303.067 27.0495 300.667 41.3161 298.667 53.4495C296.533 65.5828 294.8 73.5828 294.8 71.4495C294.667 69.1828 292.267 55.1828 289.467 40.1161L284.533 12.7828L276.8 12.3828C269.867 11.9828 269.067 12.2495 269.6 14.3828Z" fill="black"/>
<path d="M329.333 49.4495V86.7828H336H342.667V49.4495V12.1162H336H329.333V49.4495Z" fill="black"/>
<path d="M356 49.4495V86.7828H363.467H371.067L370.133 63.7162C369.6 51.1828 368.8 39.7162 368.4 38.2495C368 36.6495 368.267 36.1162 369.2 36.6495C370 37.1828 370.667 38.5162 370.667 39.7162C370.667 40.9162 374.667 51.9828 379.6 64.3828L388.533 86.7828H395.6H402.667V49.4495V12.1162H395.733H388.933L389.733 38.3828L390.667 64.7828L386.8 53.4495C384.533 47.1828 380.133 35.4495 376.933 27.4495L370.933 12.7828L363.467 12.3828L356 11.9828V49.4495Z" fill="black"/>
<path d="M261.333 56.2495C261.333 59.8495 259.2 63.7162 253.867 69.8495C248.8 75.4495 248.4 77.1829 251.333 82.7829C253.6 87.0495 258.133 88.9162 263.333 87.5829C270.933 85.7162 273.067 71.3162 267.333 60.1162C263.733 53.1829 261.333 51.5829 261.333 56.2495Z" fill="#CF056F"/>
</svg>
